<?xml version="1.0" encoding="utf-8"?>
<!-- Generator: Adobe Illustrator 18.1.1, SVG Export Plug-In . SVG Version: 6.00 Build 0)  -->
<svg version="1.1" id="Layer_1" xmlns="http://www.w3.org/2000/svg" xmlns:xlink="http://www.w3.org/1999/xlink" x="0px" y="0px"
	 viewBox="0 164 960 232.1" enable-background="new 0 164 960 232.1" xml:space="preserve">
<g>
	<g>
		<path fill="#FF0000" d="M324.8,308.9l-6.4-14.6H290l-6.4,14.6h-16.2l29.4-68h14.6l29.4,68H324.8z M304.3,261.2l-8.5,19.8h17
			L304.3,261.2z"/>
		<path fill="#FF0000" d="M377.8,255.8c6.1,0,11.5,2.5,16.3,7.7c4.8,5,7.2,11.5,7.2,19.2c0,7.7-2.4,14.2-7.2,19.3
			c-4.8,5.2-10.3,7.8-16.7,7.8s-11.5-2.5-15.4-7.7v25.8h-14.6v-71.3H362v5.9C366.5,257.9,371.8,255.8,377.8,255.8z M361.8,282.9
			c0,4.2,1.2,7.7,3.6,10.4c2.4,2.6,5.3,4.1,8.6,4.1c3.4,0,6.4-1.3,8.9-4.1c2.5-2.6,3.8-6.1,3.8-10.3c0-4.2-1.2-7.8-3.7-10.6
			c-2.5-2.9-5.4-4.3-8.9-4.3s-6.4,1.4-8.8,4.2C363,275.1,361.8,278.6,361.8,282.9z"/>
		<path fill="#FF0000" d="M442.6,255.8c6.1,0,11.5,2.5,16.3,7.7c4.8,5,7.2,11.5,7.2,19.2c0,7.7-2.4,14.2-7.2,19.3
			c-4.8,5.2-10.3,7.8-16.7,7.8s-11.5-2.5-15.4-7.7v25.8h-14.6v-71.3h14.6v5.9C431.2,257.9,436.4,255.8,442.6,255.8z M426.6,282.9
			c0,4.2,1.2,7.7,3.6,10.4c2.4,2.6,5.3,4.1,8.6,4.1c3.4,0,6.4-1.3,8.9-4.1c2.5-2.6,3.8-6.1,3.8-10.3c0-4.2-1.2-7.8-3.7-10.6
			c-2.5-2.9-5.4-4.3-8.9-4.3c-3.5,0-6.4,1.4-8.8,4.2C427.7,275.1,426.6,278.6,426.6,282.9z"/>
		<path fill="#FF0000" d="M552.5,308.9l-6.4-14.6h-28.4l-6.4,14.6h-16.2l29.4-68h14.6l29.4,68H552.5z M532,261.2l-8.5,19.8h17
			L532,261.2z"/>
		<path fill="#FF0000" d="M600.1,296.8c4.9,0,9.2-2.4,13.1-7.3l8.6,9.7c-6.7,7-14,10.6-21.8,10.6s-14.5-2.5-19.9-7.4
			c-5.4-4.9-8.2-11.4-8.2-19.4s2.8-14.5,8.2-19.6c5.5-5,12-7.6,19.6-7.6c3.7,0,7.6,0.7,11.4,2.3c3.8,1.6,7.2,3.8,10.2,7l-7.6,10
			c-1.7-2-3.7-3.6-6.1-4.7c-2.4-1.1-4.8-1.7-7.2-1.7c-3.8,0-7.1,1.2-9.8,3.7c-2.8,2.5-4.1,6-4.1,10.4c0,4.4,1.3,7.9,4.1,10.3
			C593.3,295.6,596.4,296.8,600.1,296.8z"/>
		<path fill="#FF0000" d="M676.1,308.9h-13.7v-6.4c-3.7,4.7-8.4,7.1-13.9,7.1s-10.2-1.6-13.9-4.8s-5.6-7.4-5.6-12.8s1.9-9.4,5.9-12
			c3.8-2.6,9.2-4,16-4h10.9v-0.2c0-5.5-3-8.4-8.9-8.4c-2.5,0-5.2,0.5-8,1.6c-2.9,1-5.2,2.3-7.2,3.7l-6.5-9.5
			c6.8-5,14.8-7.4,23.5-7.4c6.4,0,11.5,1.6,15.6,4.8c4,3.1,6,8.2,6,15.1v33.2H676.1z M661.4,289v-2.5h-9.1c-5.9,0-8.8,1.8-8.8,5.4
			c0,1.9,0.7,3.4,2,4.3c1.4,1,3.4,1.6,6,1.6s4.9-0.8,6.8-2.4C660.5,293.8,661.4,291.6,661.4,289z"/>
		<path fill="#FF0000" d="M710.4,309.8c-6.2,0-11.8-2.6-16.6-7.9c-4.9-5.3-7.3-11.8-7.3-19.6s2.4-14.2,7.1-19.1
			c4.7-4.9,10.3-7.4,16.7-7.4c6.4,0,11.5,2.3,15.6,6.7v-25.7h14.5v72.1h-14.6v-7C721.7,307.1,716.5,309.8,710.4,309.8z M701.2,282.9
			c0,4.2,1.3,7.7,3.8,10.3c2.5,2.6,5.5,4.1,8.9,4.1c3.4,0,6.2-1.3,8.6-4.1c2.4-2.6,3.6-6.1,3.6-10.4c0-4.2-1.2-7.8-3.6-10.6
			c-2.4-2.9-5.3-4.2-8.8-4.2c-3.5,0-6.4,1.4-8.9,4.3C702.5,275.1,701.2,278.7,701.2,282.9z"/>
		<path fill="#FF0000" d="M799.6,301.4c-5.9,5.5-12.8,8.4-20.8,8.4s-14.5-2.4-19.7-7.3c-5.2-4.9-7.8-11.4-7.8-19.7
			c0-8.3,2.6-14.8,7.9-19.7c5.3-4.9,11.5-7.3,18.7-7.3s13.3,2.2,18.4,6.5c5,4.3,7.6,10.3,7.6,17.9v7.8h-38.2c0.5,2.9,1.9,5.2,4.4,7
			c2.5,1.8,5.4,2.8,8.5,2.8c5.2,0,9.4-1.7,12.6-5.2L799.6,301.4z M785.5,270.3c-2-1.7-4.4-2.5-7.3-2.5c-2.9,0-5.5,0.8-7.9,2.6
			s-3.8,4.1-4.2,7.1H789C788.6,274.4,787.6,272,785.5,270.3z"/>
		<path fill="#FF0000" d="M862.3,280.7v28.2h-14.6v-28.6c0-4.2-0.6-7.2-1.9-9.1c-1.3-1.9-3.4-2.9-6.1-2.9c-2.9,0-5.3,1.1-7.4,3.1
			c-2.2,2.2-3.2,5.2-3.2,9.2v28.2h-14.6v-52.3H829v5.9c4-4.6,8.6-6.8,13.8-6.8c3.4,0,6.4,1,9,2.9c2.6,1.9,4.7,4.3,6.1,7.1
			c2-3.1,4.7-5.6,8.2-7.4c3.4-1.8,6.8-2.6,10.3-2.6c6.1,0,11.2,1.8,14.9,5.5c3.7,3.7,5.6,9,5.6,16v31.8H882v-28.4
			c0-8-3-12.1-8.9-12.1c-2.9,0-5.4,1.1-7.6,3.1C863.4,273.5,862.3,276.6,862.3,280.7z"/>
		<path fill="#FF0000" d="M919,329.6c-5.2,0-10-2-14.5-6.2l6.6-10.8c2.5,2.4,5,3.6,7.6,3.6c1.3,0,2.5-0.7,3.5-2
			c1-1.3,1.4-2.8,1.4-4.2s-6.7-19.2-20.3-53.3h15.6l12.7,32.6l12.8-32.6H960l-24.4,61.7c-1.4,3.6-3.6,6.4-6.7,8.3
			C926,328.6,922.7,329.6,919,329.6z"/>
	</g>
	<g>
		<g>
			<path fill="#FF0000" d="M116,396C52.1,396,0,344,0,280s52.1-116,116-116s116,52.1,116,116S180,396,116,396z M116,176.9
				c-56.8,0-103,46.2-103,103s46.2,103,103,103s103-46.2,103-103C219,223.2,172.8,176.9,116,176.9z"/>
		</g>
		<path fill="#FF0000" d="M93.6,230.6c-4.7-7.7-13.6-12-24.8-12c-10.1,0-18.8,3.4-25.1,9.8l-1.3,1.3l7.8,10.1l1.7-1.8
			c5.5-5.8,13.2-6.6,17.3-6.6c5.5,0,9.1,1.8,11.2,5.3c1.8,3,1.3,6.7,1.3,10v0.5h-0.8c-8.4,0-18.8,0-27.4,3
			C41.3,254.6,37,263.8,37,270.9c0,10.1,8,20.8,23.8,20.8c7.4,0,13.7-2.4,20.9-6.7v5.3h15.6v-43C97.3,241.4,96.8,236,93.6,230.6z
			 M63,279.4c-7.7,0-11.4-4.7-11.4-9.2c0-1.9,0.7-4,2.4-5.8c1.6-1.8,4.1-3.5,7.8-4.3c3.7-0.8,9.1-1.1,13.1-1.1c1.4,0,7,0.1,7,0.1
			v3.6C81.7,274.1,70.8,279.4,63,279.4z"/>
		<g>
			
				<rect x="109.6" y="198.4" transform="matrix(-0.9428 -0.3333 0.3333 -0.9428 132.164 582.5627)" fill="#FF0000" width="13" height="163.1"/>
		</g>
		<path fill="#FF0000" d="M158.5,247.1h-4.1l-30.7,87.6h13.8l8-25.2h23.2l9.1,25.2h14.3L158.5,247.1z M148.8,298.7l7.7-22.9
			l8.5,22.9H148.8z"/>
	</g>
</g>
</svg>
